<?xml version="1.0" encoding="UTF-8" standalone="no"?>
<!DOCTYPE svg PUBLIC "-//W3C//DTD SVG 1.1//EN"
 "http://www.w3.org/Graphics/SVG/1.1/DTD/svg11.dtd">
<!-- Generated by graphviz version 2.40.1 (20161225.0304)
 -->
<!-- Title: state transitions Pages: 1 -->
<svg width="271pt" height="200pt"
 viewBox="0.00 0.00 271.00 200.00" xmlns="http://www.w3.org/2000/svg" xmlns:xlink="http://www.w3.org/1999/xlink">
<g id="graph0" class="graph" transform="scale(1 1) rotate(0) translate(4 196)">
<title>state transitions</title>
<polygon fill="#ffffff" stroke="transparent" points="-4,4 -4,-196 267,-196 267,4 -4,4"/>
<g id="clust1" class="cluster state regular">
<title>cluster_State</title>
<path fill="none" stroke="#000000" stroke-width="2" d="M20,-8C20,-8 243,-8 243,-8 249,-8 255,-14 255,-20 255,-20 255,-172 255,-172 255,-178 249,-184 243,-184 243,-184 20,-184 20,-184 14,-184 8,-178 8,-172 8,-172 8,-20 8,-20 8,-14 14,-8 20,-8"/>
<text text-anchor="start" x="117.493" y="-165.2" font-family="Helvetica,sans-Serif" font-size="12.00" fill="#000000">State</text>
</g>
<!-- State -->
<!-- IDLE -->
<g id="node2" class="node state regular">
<title>IDLE</title>
<polygon fill="#ffffff" fill-opacity="0.003922" stroke="transparent" stroke-width="2" points="157,-146 101,-146 101,-110 157,-110 157,-146"/>
<text text-anchor="start" x="115.6644" y="-124.2" font-family="Helvetica,sans-Serif" font-size="12.00" fill="#000000">IDLE</text>
<path fill="none" stroke="#000000" stroke-width="2" d="M113.3333,-111C113.3333,-111 144.6667,-111 144.6667,-111 150.3333,-111 156,-116.6667 156,-122.3333 156,-122.3333 156,-133.6667 156,-133.6667 156,-139.3333 150.3333,-145 144.6667,-145 144.6667,-145 113.3333,-145 113.3333,-145 107.6667,-145 102,-139.3333 102,-133.6667 102,-133.6667 102,-122.3333 102,-122.3333 102,-116.6667 107.6667,-111 113.3333,-111"/>
</g>
<!-- WRITE -->
<g id="node3" class="node state regular">
<title>WRITE</title>
<polygon fill="#ffffff" fill-opacity="0.003922" stroke="transparent" stroke-width="2" points="101,-52 41,-52 41,-16 101,-16 101,-52"/>
<text text-anchor="start" x="51.671" y="-30.2" font-family="Helvetica,sans-Serif" font-size="12.00" fill="#000000">WRITE</text>
<path fill="none" stroke="#000000" stroke-width="2" d="M53.3333,-17C53.3333,-17 88.6667,-17 88.6667,-17 94.3333,-17 100,-22.6667 100,-28.3333 100,-28.3333 100,-39.6667 100,-39.6667 100,-45.3333 94.3333,-51 88.6667,-51 88.6667,-51 53.3333,-51 53.3333,-51 47.6667,-51 42,-45.3333 42,-39.6667 42,-39.6667 42,-28.3333 42,-28.3333 42,-22.6667 47.6667,-17 53.3333,-17"/>
</g>
<!-- IDLE&#45;&gt;WRITE -->
<g id="edge1" class="edge transition">
<title>IDLE&#45;&gt;WRITE</title>
<path fill="none" stroke="#000000" d="M100.7162,-122.4987C84.2673,-117.6911 64.8489,-108.882 54.779,-93 48.7688,-83.5208 50.4827,-71.8162 54.5686,-61.3378"/>
<polygon fill="#000000" stroke="#000000" points="57.794,-62.7021 58.8344,-52.1585 51.446,-59.752 57.794,-62.7021"/>
<text text-anchor="start" x="54" y="-84" font-family="Helvetica,sans-Serif" font-size="10.00" fill="#000000">PWRITE &#160;&#160;</text>
<text text-anchor="start" x="54" y="-72" font-family="Helvetica,sans-Serif" font-size="10.00" fill="#000000">PSEL &#160;&#160;</text>
</g>
<!-- READ -->
<g id="node4" class="node state regular">
<title>READ</title>
<polygon fill="#ffffff" fill-opacity="0.003922" stroke="transparent" stroke-width="2" points="204,-52 148,-52 148,-16 204,-16 204,-52"/>
<text text-anchor="start" x="159.3344" y="-30.2" font-family="Helvetica,sans-Serif" font-size="12.00" fill="#000000">READ</text>
<path fill="none" stroke="#ff0000" stroke-width="2" d="M160.3333,-17C160.3333,-17 191.6667,-17 191.6667,-17 197.3333,-17 203,-22.6667 203,-28.3333 203,-28.3333 203,-39.6667 203,-39.6667 203,-45.3333 197.3333,-51 191.6667,-51 191.6667,-51 160.3333,-51 160.3333,-51 154.6667,-51 149,-45.3333 149,-39.6667 149,-39.6667 149,-28.3333 149,-28.3333 149,-22.6667 154.6667,-17 160.3333,-17"/>
</g>
<!-- IDLE&#45;&gt;READ -->
<g id="edge2" class="edge transition">
<title>IDLE&#45;&gt;READ</title>
<path fill="none" stroke="#ff0000" d="M138.0621,-109.8759C144.9543,-96.0915 154.5516,-76.8968 162.3687,-61.2627"/>
<polygon fill="#ff0000" stroke="#ff0000" points="165.6241,-62.5781 166.9657,-52.0685 159.3631,-59.4475 165.6241,-62.5781"/>
<text text-anchor="start" x="158" y="-84" font-family="Helvetica,sans-Serif" font-size="10.00" fill="#ff0000">not (PWRITE) &#160;&#160;</text>
<text text-anchor="start" x="158" y="-72" font-family="Helvetica,sans-Serif" font-size="10.00" fill="#ff0000">PSEL &#160;&#160;</text>
</g>
<!-- WRITE&#45;&gt;IDLE -->
<g id="edge3" class="edge transition">
<title>WRITE&#45;&gt;IDLE</title>
<path fill="none" stroke="#000000" d="M89.8091,-52.3228C94.4784,-57.4473 99.2223,-63.207 103,-69 109.3479,-78.7343 114.8232,-90.2768 119.0897,-100.5599"/>
<polygon fill="#000000" stroke="#000000" points="115.8647,-101.9224 122.7989,-109.933 122.3736,-99.3467 115.8647,-101.9224"/>
<text text-anchor="middle" x="116.3895" y="-78" font-family="Helvetica,sans-Serif" font-size="10.00" fill="#000000"> </text>
</g>
</g>
</svg>
